<?xml version="1.0" standalone="no"?>

<svg version="1.0" xmlns="http://www.w3.org/2000/svg"
 width="367.000000pt" height="290.000000pt" viewBox="0 0 367.000000 290.000000"
 preserveAspectRatio="xMidYMid meet">

<g transform="translate(0.000000,290.000000) scale(0.100000,-0.100000)"
fill="#FFF" stroke="none">
<path d="M2956 2778 c-19 -192 -53 -332 -100 -406 -71 -111 -191 -157 -490
-188 -85 -8 -68 -19 44 -28 159 -12 328 -62 385 -113 32 -29 81 -96 93 -128
26 -69 43 -159 71 -380 l8 -60 6 60 c4 33 14 109 23 169 36 248 107 352 274
405 72 23 234 51 295 51 73 0 72 17 -1 24 -366 38 -486 107 -539 311 -20 73
-45 237 -45 287 0 77 -17 74 -24 -4z"/>
<path d="M2160 2415 c0 -69 -56 -125 -124 -125 -14 0 -26 -4 -26 -10 0 -5 11
-10 24 -10 71 0 112 -39 123 -115 6 -46 23 -53 23 -9 0 14 7 40 15 60 15 37
62 64 110 64 14 0 25 5 25 10 0 6 -11 10 -25 10 -48 0 -95 27 -110 64 -8 20
-15 47 -15 61 0 14 -4 25 -10 25 -5 0 -10 -11 -10 -25z"/>
<path d="M340 2029 c-119 -21 -243 -106 -291 -200 -60 -118 -64 -274 -10 -384
38 -76 112 -146 178 -169 93 -32 223 -15 304 38 l39 26 0 -194 0 -195 -26 -20
c-15 -12 -33 -21 -41 -21 -8 0 -11 -4 -8 -10 8 -13 402 -14 409 -1 3 5 -5 12
-18 15 -58 14 -56 -7 -56 539 0 439 2 505 16 525 8 12 24 22 34 22 10 0 22 5
25 10 4 7 -53 10 -164 10 -119 0 -170 -3 -173 -12 -3 -7 -12 -6 -30 6 -33 21
-115 28 -188 15z m198 -39 c22 -20 22 -25 22 -319 l0 -299 -35 -30 c-37 -33
-89 -48 -129 -38 -38 10 -84 65 -106 130 -62 179 -18 443 90 540 34 31 47 36
88 36 35 0 54 -6 70 -20z"/>
<path d="M940 2011 c0 -5 13 -11 29 -14 46 -10 51 -41 51 -335 0 -251 1 -266
21 -302 43 -77 165 -116 304 -99 93 12 157 38 203 81 l32 32 0 -52 0 -52 165
0 c103 0 165 4 165 10 0 6 -8 10 -18 10 -11 0 -27 9 -38 21 -18 20 -19 42 -22
313 -4 329 1 363 49 373 75 15 12 23 -176 23 -113 0 -205 -2 -205 -6 0 -3 14
-10 31 -16 17 -6 34 -21 40 -35 5 -13 9 -143 9 -287 0 -257 -1 -264 -23 -297
-12 -18 -38 -44 -57 -57 -47 -32 -146 -28 -184 7 -39 37 -46 91 -46 354 0 272
5 305 51 314 75 15 11 23 -176 23 -113 0 -205 -4 -205 -9z"/>
<path d="M1960 2011 c0 -5 13 -11 29 -14 47 -10 51 -39 51 -358 0 -314 -3
-336 -52 -346 -74 -15 -10 -23 177 -23 187 0 251 8 176 23 -48 10 -51 37 -51
398 l0 329 -165 0 c-91 0 -165 -4 -165 -9z"/>
<path d="M2659 1865 c-4 -5 -10 -48 -13 -95 -11 -129 -34 -277 -57 -360 -81
-289 -239 -382 -727 -426 -40 -4 -74 -10 -77 -13 -2 -4 62 -15 143 -25 349
-44 495 -103 581 -235 66 -103 108 -269 132 -530 7 -73 16 -126 20 -119 3 7
10 49 13 93 11 128 53 360 79 434 62 177 175 269 390 315 87 19 336 56 378 56
62 0 16 18 -63 24 -216 18 -364 50 -474 101 -197 90 -253 222 -312 725 -4 36
-10 61 -13 55z"/>
</g>
</svg>
