<svg xmlns="http://www.w3.org/2000/svg" viewBox="0 9.449999809265137 108.96891784667969 41.29999923706055" data-asc="0.8" width="108.96891784667969" height="41.29999923706055"><defs/><g fill="#ffffff"><g transform="translate(0, 0)"><path d="M38.95 50.70Q38.60 50.75 38.25 50.75Q37.90 50.75 37.55 50.75Q34.50 50.75 31.80 49.83Q29.10 48.90 26.70 47.48Q24.30 46.05 22.10 44.45Q19.90 42.85 17.90 41.45Q16.85 41.70 15.85 41.85Q14.85 42 13.75 42Q9.80 42 6.70 40.55Q3.60 39.10 1.80 36.35Q0 33.60 0 29.75Q0 25.95 1.48 22.63Q2.95 19.30 5.38 16.65Q7.80 14 10.73 12.25Q13.65 10.50 16.55 9.85Q17.40 9.65 18.23 9.55Q19.05 9.45 19.80 9.45Q22.90 9.45 24.95 10.82Q27 12.20 28 14.50Q29 16.80 29 19.60Q29 22.05 28.25 24.63Q27.50 27.20 25.95 29.55Q23.45 33.50 20.15 35.45Q16.85 37.40 13.60 37.95Q13.85 38.05 14.30 38.23Q14.75 38.40 14.95 38.50Q15.60 38.85 16.28 39.27Q16.95 39.70 17.60 40.10Q21.15 39 24.05 36.40Q26.95 33.80 29.03 30.30Q31.10 26.80 32 23.05Q32.70 20.35 32.70 17.95Q32.70 15.10 31.58 13.05Q30.45 11 27.85 10.80Q27.05 10.75 27.05 10.40Q27.05 10.20 27.38 10.05Q27.70 9.90 28.10 9.95Q31.70 10.50 33.18 13.22Q34.65 15.95 34.40 19.65Q34.25 22.80 33 26.07Q31.75 29.35 29.68 32.35Q27.60 35.35 24.88 37.63Q22.15 39.90 19.05 41.05Q21.55 42.65 24.33 44.27Q27.10 45.90 30.10 47Q33.10 48.10 36.35 48.10Q36.75 48.10 37.13 48.10Q37.50 48.10 37.85 48.05Q39.15 47.95 40.58 47.45Q42 46.95 43.03 46Q44.05 45.05 44.05 43.70Q44.05 42.85 43.55 41.90Q43.40 41.65 43.40 41.50Q43.40 41.15 43.75 41.15Q44.25 41.15 44.50 41.70Q45.05 42.75 45.20 43.75Q45.35 44.75 45.30 45.70Q45.25 47.45 43.58 48.95Q41.90 50.45 38.95 50.70M14 40.80Q14.65 40.75 15.25 40.65Q15.85 40.55 16.45 40.45Q14.45 39.05 12.60 38.40Q12.05 38.55 11 38.85Q9.95 39.15 9.30 39.10Q8.65 39 8.35 38.63Q8.05 38.25 8.05 37.85Q8.05 37.45 8.40 37.05Q8.75 36.65 9.40 36.60Q9.80 36.60 10.90 36.77Q12 36.95 13.10 36.95Q16.20 36.05 18.75 33.95Q21.30 31.85 23.18 29.07Q25.05 26.30 26.08 23.32Q27.10 20.35 27.10 17.75Q27.10 14.65 25.50 12.57Q23.90 10.50 20.35 10.50Q19.70 10.50 18.90 10.60Q18.10 10.70 17.25 10.90Q15.20 11.40 13.13 12.82Q11.05 14.25 9.13 16.35Q7.20 18.45 5.73 20.95Q4.25 23.45 3.38 26.07Q2.50 28.70 2.50 31.20Q2.50 35.90 5.25 38.38Q8 40.85 12.55 40.85Q12.95 40.85 13.30 40.85Q13.65 40.85 14 40.80ZM46.55 40.50Q45.65 40.50 44.95 40.10Q44.25 39.70 43.90 38.60Q43.85 38.35 43.78 38.02Q43.70 37.70 43.70 37.35Q43.70 36.15 44.03 34.65Q44.35 33.15 44.75 32.15Q44.55 32.30 44.05 33.15Q43.55 34 42.80 35.13Q42.05 36.25 41.13 37.38Q40.20 38.50 39.13 39.23Q38.05 39.95 36.85 39.95Q36.05 39.95 34.93 39.50Q33.80 39.05 33.30 38.25Q32.80 37.45 32.80 36.25Q32.80 34.80 33.45 33.08Q34.10 31.35 35.10 29.85Q35.45 29.35 35.90 28.65Q36.35 27.95 36.80 27.42Q37.25 26.90 37.45 26.85Q38.05 26.65 38.85 26.65Q39.70 26.65 40.10 26.85Q40.45 27 40.45 27.20Q40.45 27.45 40.05 27.85Q39.50 28.35 38.55 29.35Q37.60 30.35 36.68 31.75Q35.75 33.15 35.15 34.85Q34.65 36.20 34.65 37.20Q34.65 38.95 36.05 38.95Q37.25 38.95 38.60 37.95Q39.95 36.95 41.23 35.50Q42.50 34.05 43.53 32.63Q44.55 31.20 45.10 30.35Q45.60 29.65 46.23 28.55Q46.85 27.45 47.45 26.40Q48.05 25.35 48.40 24.85Q48.75 24.85 49.48 24.98Q50.20 25.10 50.73 25.40Q51.25 25.70 51 26.15Q50.70 26.65 50.08 27.70Q49.45 28.75 48.83 29.82Q48.20 30.90 47.85 31.55Q46.65 33.85 46.30 36.50Q46.25 36.70 46.25 36.88Q46.25 37.05 46.25 37.25Q46.25 39.25 47.60 39.25Q48.35 39.25 49.60 38.35Q50.85 37.45 52.18 36.20Q53.50 34.95 54.58 33.77Q55.65 32.60 56.05 32Q56.15 31.85 56.35 31.85Q56.55 31.85 56.68 32Q56.80 32.15 56.65 32.40Q56.20 33.25 55.13 34.52Q54.05 35.80 52.75 37.08Q51.45 38.35 50.20 39.25Q49.55 39.75 48.55 40.13Q47.55 40.50 46.55 40.50ZM63.30 22.60Q62.65 22.60 61.95 22.47Q61.25 22.35 61.25 21.55Q61.25 21.40 61.93 20.85Q62.60 20.30 63.33 19.72Q64.05 19.15 64.20 19.05Q65.05 18.35 65.25 18.35Q65.50 18.35 65.25 19Q65 19.65 65 20.15Q65 20.40 64.70 21Q64.40 21.60 64 22.10Q63.60 22.60 63.30 22.60M57.85 40.50Q56.95 40.50 56.23 40.10Q55.50 39.70 55.15 38.60Q55.10 38.45 55.08 38.30Q55.05 38.15 55.05 37.95Q55.05 36.95 55.50 35.45Q55.95 33.95 56.60 32.55Q56.30 32.95 55.90 33.52Q55.50 34.10 54.75 35Q54.55 35.20 54.30 35.20Q53.95 35.20 53.95 34.80Q53.95 34.50 54.15 34.30Q55.45 32.65 56.48 31.35Q57.50 30.05 58.00 29.15Q58.00 29.10 57.98 29.07Q57.95 29.05 57.95 29Q57.95 28.85 58.10 28.55Q58.50 27.35 58.93 26.52Q59.35 25.70 59.85 25.60Q59.95 25.60 60.05 25.57Q60.15 25.55 60.25 25.55Q60.80 25.55 61.25 25.80Q61.70 26.05 61.70 26.55Q61.70 27 61.38 27.65Q61.05 28.30 60.55 29.25Q59.45 31.55 58.58 33.42Q57.70 35.30 57.60 36.50Q57.55 36.70 57.55 36.88Q57.55 37.05 57.55 37.25Q57.55 39.25 58.85 39.25Q59.65 39.25 60.90 38.38Q62.15 37.50 63.45 36.23Q64.75 34.95 65.83 33.77Q66.90 32.60 67.30 32Q67.45 31.85 67.60 31.85Q67.80 31.85 67.93 32Q68.05 32.15 67.95 32.40Q67.50 33.25 66.43 34.52Q65.35 35.80 64.03 37.08Q62.70 38.35 61.45 39.25Q60.80 39.75 59.83 40.13Q58.85 40.50 57.85 40.50ZM63.65 49.60Q63.20 49.60 63.20 49.05Q63.20 47.20 64.28 45.10Q65.35 43 66.92 40.92Q68.50 38.85 70.08 37.13Q71.65 35.40 72.73 34.27Q73.80 33.15 73.80 32.95Q73.80 32.45 73.50 31.52Q73.20 30.60 72.70 29.82Q72.20 29.05 71.60 29.05Q70.85 29.05 69.92 30.23Q69 31.40 67.70 32.90Q67.40 33.25 67.15 33.25Q66.85 33.25 66.85 32.90Q66.85 32.60 67.05 32.40Q67.50 31.85 68.25 30.82Q69 29.80 69.85 28.73Q70.70 27.65 71.53 26.92Q72.35 26.20 72.95 26.20Q74.20 26.20 74.75 26.95Q75.30 27.70 75.60 28.82Q75.90 29.95 76.30 31.20Q78.15 29.45 79.90 27.98Q81.65 26.50 83.80 25.15Q84.15 24.95 84.55 24.95Q85.15 24.95 85.60 25.30Q86.05 25.65 86.05 26.20Q86.05 26.70 85.58 26.73Q85.10 26.75 84.85 26.85Q83 27.55 81.95 28.25Q80.90 28.95 80.10 29.60L76.55 32.45Q76.55 33 77.10 34.45Q77.65 35.90 78.35 37.25Q79.30 39 80.50 39Q81.30 39 82.10 38.45Q82.90 37.90 83.70 37.10Q84.90 35.75 86.08 34.23Q87.25 32.70 87.75 32Q87.90 31.85 88.10 31.85Q88.35 31.85 88.48 32.05Q88.60 32.25 88.35 32.55Q88.05 32.95 87.33 33.95Q86.60 34.95 85.68 36.10Q84.75 37.25 83.80 38.20Q82.45 39.45 81.43 39.90Q80.40 40.35 79.55 40.35Q79.35 40.35 79.10 40.33Q78.85 40.30 78.60 40.25Q77.50 40 76.68 38.95Q75.85 37.90 75.28 36.60Q74.70 35.30 74.35 34.40Q73.45 35.35 72.17 36.73Q70.90 38.10 69.50 39.73Q68.10 41.35 66.88 43.05Q65.65 44.75 64.88 46.30Q64.10 47.85 64.05 49.05Q64 49.60 63.65 49.60ZM84.10 49.60Q83.65 49.60 83.65 49.05Q83.65 47.20 84.73 45.10Q85.80 43 87.38 40.92Q88.95 38.85 90.53 37.13Q92.10 35.40 93.18 34.27Q94.25 33.15 94.25 32.95Q94.25 32.45 93.95 31.52Q93.65 30.60 93.15 29.82Q92.65 29.05 92.05 29.05Q91.30 29.05 90.38 30.23Q89.45 31.40 88.15 32.90Q87.85 33.25 87.60 33.25Q87.30 33.25 87.30 32.90Q87.30 32.60 87.50 32.40Q87.95 31.85 88.70 30.82Q89.45 29.80 90.30 28.73Q91.15 27.65 91.98 26.92Q92.80 26.20 93.40 26.20Q94.65 26.20 95.20 26.95Q95.75 27.70 96.05 28.82Q96.35 29.95 96.75 31.20Q98.60 29.45 100.35 27.98Q102.10 26.50 104.25 25.15Q104.60 24.95 105 24.95Q105.60 24.95 106.05 25.30Q106.50 25.65 106.50 26.20Q106.50 26.70 106.03 26.73Q105.55 26.75 105.30 26.85Q103.45 27.55 102.40 28.25Q101.35 28.95 100.55 29.60L97 32.45Q97 33 97.55 34.45Q98.10 35.90 98.80 37.25Q99.75 39 100.95 39Q101.75 39 102.55 38.45Q103.35 37.90 104.15 37.10Q105.35 35.75 106.53 34.23Q107.70 32.70 108.20 32Q108.35 31.85 108.55 31.85Q108.80 31.85 108.93 32.05Q109.05 32.25 108.80 32.55Q108.50 32.95 107.78 33.95Q107.05 34.95 106.13 36.10Q105.20 37.25 104.25 38.20Q102.90 39.45 101.88 39.90Q100.85 40.35 100 40.35Q99.80 40.35 99.55 40.33Q99.30 40.30 99.05 40.25Q97.95 40 97.13 38.95Q96.30 37.90 95.73 36.60Q95.15 35.30 94.80 34.40Q93.90 35.35 92.63 36.73Q91.35 38.10 89.95 39.73Q88.55 41.35 87.33 43.05Q86.10 44.75 85.33 46.30Q84.55 47.85 84.50 49.05Q84.45 49.60 84.10 49.60Z"/></g></g></svg>