<?xml version="1.0" encoding="UTF-8"?>
<svg version="1.1" xmlns="http://www.w3.org/2000/svg" width="442" height="442">
<path d="M0 0 C2.49008437 -0.00218088 4.97972041 -0.02038338 7.46972656 -0.03930664 C17.4245055 -0.07426343 26.91598094 0.56960517 36.75878906 2.18530273 C37.52578125 2.30043213 38.29277344 2.41556152 39.08300781 2.53417969 C79.7314752 8.76812714 118.40460044 27.64321878 148.75878906 55.18530273 C150.15261704 56.37515588 151.54814212 57.56302762 152.94628906 58.74780273 C162.72629133 67.40414517 170.96355677 76.74703955 178.75878906 87.18530273 C179.40678467 88.04212646 179.40678467 88.04212646 180.06787109 88.91625977 C186.82751213 97.88898525 192.51850715 107.25471852 197.75878906 117.18530273 C198.11215332 117.85352051 198.46551758 118.52173828 198.82958984 119.21020508 C215.31067216 150.64366757 222.94792606 183.63194482 222.9440918 219.11035156 C222.94626918 221.35232822 222.96447643 223.59380366 222.98339844 225.83569336 C223.15588937 270.3581633 208.3301223 314.46265368 181.75878906 350.18530273 C180.98019531 351.2487793 180.20160156 352.31225586 179.39941406 353.40795898 C173.38359856 361.50631146 166.74406366 368.91617004 159.75878906 376.18530273 C158.9015625 377.0837793 158.04433594 377.98225586 157.16113281 378.90795898 C142.87123527 393.56019941 125.81087109 405.60705676 107.75878906 415.18530273 C107.14213379 415.51481934 106.52547852 415.84433594 105.89013672 416.18383789 C65.59718471 437.56231103 20.01256061 446.06904351 -25.24121094 440.18530273 C-26.2231543 440.06413086 -27.20509766 439.94295898 -28.21679688 439.81811523 C-57.84307722 436.01912868 -86.84171905 425.968799 -112.24121094 410.18530273 C-113.18738281 409.61295898 -114.13355469 409.04061523 -115.10839844 408.45092773 C-136.11208492 395.47981257 -155.0704348 378.64133057 -170.24121094 359.18530273 C-171.27200015 357.90628541 -172.30328354 356.62766625 -173.33496094 355.34936523 C-181.17784684 345.51105482 -187.54603646 335.39186228 -193.24121094 324.18530273 C-193.86938721 322.97148926 -193.86938721 322.97148926 -194.51025391 321.7331543 C-201.56658939 308.00522863 -206.83889788 293.96951236 -211.24121094 279.18530273 C-211.56943848 278.1136084 -211.56943848 278.1136084 -211.90429688 277.02026367 C-215.01422203 266.620632 -216.1815132 255.86354281 -217.49121094 245.12280273 C-217.62517273 244.04739227 -217.62517273 244.04739227 -217.76184082 242.95025635 C-219.67638692 227.3350468 -219.64689915 212.457097 -217.49121094 196.81030273 C-217.40062408 196.13765381 -217.31003723 195.46500488 -217.21670532 194.77197266 C-215.77311843 184.08491304 -214.03673512 173.60290918 -211.24121094 163.18530273 C-211.03222168 162.35820801 -210.82323242 161.53111328 -210.60791016 160.67895508 C-200.96741668 123.00591874 -178.32306785 84.08345475 -148.33496094 58.97436523 C-146.81832406 57.67843298 -145.34376264 56.33272685 -143.89746094 54.95874023 C-105.75411112 18.76851375 -51.97135852 -0.00507731 0 0 Z M-57.24121094 107.18530273 C-72.68381848 125.07426395 -79.74162984 146.64424753 -78.24121094 170.18530273 C-75.89173163 190.85640969 -65.3714892 210.87221372 -49.24121094 224.18530273 C-30.32630677 238.06396861 -8.71910741 244.97887425 14.74707031 241.68139648 C35.57398947 237.95850491 54.08856634 226.77142521 67.00878906 209.99780273 C79.23376794 192.04236501 85.79136035 171.78565051 82.41308594 149.95092773 C81.5053027 145.25578839 80.21533524 140.73764392 78.75878906 136.18530273 C78.48164063 135.28682617 78.20449219 134.38834961 77.91894531 133.46264648 C70.92453003 113.63976445 54.46030291 97.14280353 35.75878906 88.18530273 C30.53382659 86.14545628 25.17364106 84.62926327 19.75878906 83.18530273 C18.39753906 82.81405273 18.39753906 82.81405273 17.00878906 82.43530273 C-9.77671085 76.09136854 -38.76495287 87.70694253 -57.24121094 107.18530273 Z M-120.81933594 293.97827148 C-130.49733524 306.10781697 -133.517799 318.53255397 -133.81103516 333.66455078 C-133.84760945 335.12833168 -133.90209956 336.59178222 -133.97509766 338.05419922 C-134.51817037 346.92060662 -134.51817037 346.92060662 -131.421875 355.0222168 C-129.15232361 357.32434089 -126.83702443 359.26329501 -124.24121094 361.18530273 C-123.12384903 362.14823375 -122.0088916 363.1139693 -120.89746094 364.08374023 C-119.85231337 364.91802469 -118.80007707 365.74350013 -117.74121094 366.56030273 C-117.15210937 367.01598633 -116.56300781 367.47166992 -115.95605469 367.94116211 C-73.20096039 400.47609295 -21.6308646 413.56727923 31.55957031 406.48413086 C32.2853125 406.38551758 33.01105469 406.2869043 33.75878906 406.18530273 C35.66144531 405.94553711 35.66144531 405.94553711 37.60253906 405.70092773 C74.36750364 399.98536601 107.81946116 381.2768067 134.75878906 356.18530273 C135.28875488 355.79802002 135.8187207 355.4107373 136.36474609 355.01171875 C139.49466486 350.91103183 138.27459509 344.22937731 138.25976562 339.20166016 C138.25880809 336.91817025 138.3000933 334.63821584 138.34472656 332.35522461 C138.47103262 316.93549129 134.05044286 303.44283018 123.57910156 291.75170898 C108.210723 276.8116295 90.12009 275.03237969 69.71508789 275.04003906 C68.11235476 275.03704172 66.50962235 275.03363788 64.90689087 275.02986145 C60.57809764 275.02107495 56.24932421 275.01868558 51.92052293 275.01804566 C49.20836767 275.01733202 46.49621736 275.01519176 43.78406334 275.01254845 C34.30029357 275.00331213 24.81653779 274.99921134 15.33276367 275 C6.52825074 275.00060006 -2.27620078 274.99005792 -11.08069819 274.97425634 C-18.66918478 274.96112827 -26.25765143 274.95581832 -33.84614927 274.95645541 C-38.36531667 274.95670889 -42.88442946 274.95394152 -47.40358543 274.94327736 C-51.65952135 274.93350745 -55.91535143 274.93357728 -60.17129135 274.94079399 C-61.72111862 274.94182894 -63.27095279 274.93954292 -64.82076836 274.93343353 C-86.29963522 274.85434032 -105.41466246 277.28987522 -120.81933594 293.97827148 Z " fill="#FEFEFE" transform="translate(219.2412109375,-0.185302734375)"/>
</svg>
